<svg width="1280" height="458" viewBox="0 0 1280 458" fill="none" xmlns="http://www.w3.org/2000/svg">
<mask id="mask0_14_3" style="mask-type:luminance" maskUnits="userSpaceOnUse" x="0" y="0" width="458" height="458">
<path d="M457.12 44.67V114.92H173.91V203.17H111.03V114.92H56.5V203.22H0V44.67C0 20.02 20.01 0.0100021 44.66 0.0100021H412.45C437.15 0.0100021 457.11 20.02 457.11 44.67H457.12ZM339.88 162.67V342.26H285.35V162.67H228.5V342.26H173.92V250.17H111.04V342.26H56.51V250.17H0V412.47C0 437.12 20.01 457.13 44.66 457.13H412.45C437.15 457.13 457.11 437.12 457.11 412.47V162.67H339.87H339.88Z" fill="white"/>
</mask>
<g mask="url(#mask0_14_3)">
<path d="M457.12 44.66V114.91H173.91V203.16H111.03V114.91H56.5V203.21H0V44.66C0 20.01 20.01 0 44.66 0H412.45C437.15 0 457.11 20.01 457.11 44.66H457.12ZM339.88 162.66V342.25H285.35V162.66H228.5V342.25H173.92V250.16H111.04V342.25H56.51V250.16H0V412.46C0 437.11 20.01 457.12 44.66 457.12H412.45C437.15 457.12 457.11 437.11 457.11 412.46V162.66H339.87H339.88Z" fill="url(#paint0_linear_14_3)"/>
<path d="M457.12 44.67V114.92H173.91V203.17H111.03V114.92H56.5V203.22H0V44.67C0 20.02 20.01 0.0100021 44.66 0.0100021H412.45C437.15 0.0100021 457.11 20.02 457.11 44.67H457.12ZM339.88 162.67V342.26H285.35V162.67H228.5V342.26H173.92V250.17H111.04V342.26H56.51V250.17H0V412.47C0 437.12 20.01 457.13 44.66 457.13H412.45C437.15 457.13 457.11 437.12 457.11 412.47V162.67H339.87H339.88Z" fill="url(#paint1_linear_14_3)"/>
<path style="mix-blend-mode:multiply" opacity="0.25" d="M339.88 162.67V342.26H285.35V162.67H228.5V342.26H173.92V250.17H111.04V342.26H56.51V250.17H0V412.47C0 437.12 20.01 457.13 44.66 457.13H412.45C437.15 457.13 457.11 437.12 457.11 412.47V162.67H339.87H339.88Z" fill="url(#paint2_linear_14_3)"/>
<path style="mix-blend-mode:hard-light" opacity="0.6" d="M0 250.16V405.58C0 358.73 16.3 304.42 46.98 250.16H0ZM0 412.46C0 414.56 0.13 416.61 0.45 418.62C0.14 414.33 0 410 0 405.58V412.46ZM412.46 0.0100021H405.58C410 0.0100021 414.33 0.140002 418.62 0.460002C416.61 0.150002 414.56 0.0100021 412.46 0.0100021ZM0 44.67V203.22H56.5V114.92H111.03V160.92C118.71 152.21 126.75 143.64 135.19 135.2C221.93 48.51 324.78 0.0100021 405.58 0.0100021H44.66C20.01 0.0100021 0 20.02 0 44.67Z" fill="url(#paint3_linear_14_3)"/>
<g style="mix-blend-mode:hard-light" opacity="0.8">
<path d="M412.45 31.28H44.67C37.2694 31.28 31.27 37.2794 31.27 44.68V412.47C31.27 419.871 37.2694 425.87 44.67 425.87H412.45C419.851 425.87 425.85 419.871 425.85 412.47V44.68C425.85 37.2794 419.851 31.28 412.45 31.28Z" fill="url(#paint4_radial_14_3)"/>
</g>
</g>
<path d="M632.32 205.08V156.63H592.71V205.08H561.78V83.97H592.71V129.47H632.32V83.97H663.25V205.08H632.32Z" fill="#1B1B63"/>
<path d="M681.6 147.31C681.6 109.83 708.61 81.68 745.43 81.68C782.25 81.68 809.42 109.01 809.42 143.71C809.42 178.41 781.59 207.38 746.9 207.38C712.21 207.38 681.6 183.16 681.6 147.31ZM778.49 144.69C778.49 125.7 764.91 108.85 745.43 108.85C725.95 108.85 712.53 125.05 712.53 144.2C712.53 163.35 726.11 180.21 745.92 180.21C765.73 180.21 778.49 164.01 778.49 144.69Z" fill="#1B1B63"/>
<path d="M885.7 205.08L857.71 165.96H857.38V205.08H827.76V83.97H867.37C879.97 83.97 889.63 85.61 896.01 88.39C909.1 94.28 918.27 108.52 918.27 125.71C918.27 144.86 906.81 160.57 888.16 163.85L921.06 205.09H885.71L885.7 205.08ZM868.84 144.85C881.11 144.85 888.64 139.12 888.64 127.5C888.64 117.03 880.78 111.13 869.16 111.13H857.38V144.85H868.84Z" fill="#1B1B63"/>
<path d="M936.29 205.08V83.97H1003.56V111.14H965.92V129.96H1002.42V157.13H965.92V177.92H1003.56V205.09H936.29V205.08Z" fill="#1B1B63"/>
<path d="M1112.07 129.96C1106.83 116.7 1095.38 108.85 1082.77 108.85C1063.46 108.85 1050.36 125.38 1050.36 144.2C1050.36 163.02 1063.78 180.21 1082.93 180.21C1095.2 180.21 1105.68 173.34 1112.06 159.75H1144.47C1136.94 188.88 1111.9 207.38 1083.26 207.38C1066.4 207.38 1050.53 201.49 1038.09 189.21C1025 176.44 1019.43 161.06 1019.43 142.73C1019.43 110.65 1047.09 81.68 1081.79 81.68C1098.48 81.68 1111.9 86.26 1124.02 96.57C1135.48 106.39 1142.35 117.52 1144.48 129.96H1112.07Z" fill="#1B1B63"/>
<path d="M1233.69 205.08L1227.8 187.57H1185.74L1179.36 205.08H1146.13L1194.74 83.97H1219.13L1267.25 205.08H1233.7H1233.69ZM1207.17 121.77L1206.68 121.61L1194.24 163.02H1219.61L1207.17 121.77Z" fill="#1B1B63"/>
<path d="M585.68 373.17V279.22H561.79V252.05H640.35V279.22H616.62V373.17H585.69H585.68Z" fill="#1B1B63"/>
<path d="M646.73 315.4C646.73 277.92 673.74 249.77 710.56 249.77C747.38 249.77 774.55 277.1 774.55 311.8C774.55 346.5 746.72 375.47 712.03 375.47C677.34 375.47 646.73 351.25 646.73 315.4ZM743.62 312.78C743.62 293.79 730.04 276.94 710.56 276.94C691.08 276.94 677.66 293.14 677.66 312.29C677.66 331.44 691.24 348.3 711.05 348.3C730.86 348.3 743.62 332.1 743.62 312.78Z" fill="#1B1B63"/>
<path d="M792.9 373.17V252.06H833.82C846.75 251.9 856.41 253.7 862.79 256.64C875.88 262.7 884.07 276.61 884.07 292.97C884.07 315.39 871.63 335.2 836.93 335.2H822.53V373.17H792.91H792.9ZM835.78 308.03C848.22 308.03 854.44 303.77 854.44 293.46C854.44 283.15 848.39 279.22 834.64 279.22H822.53V308.03H835.79H835.78Z" fill="#1B1B63"/>
<path d="M898.63 373.17V252.06H939.55C952.48 251.9 962.14 253.7 968.52 256.64C981.61 262.7 989.8 276.61 989.8 292.97C989.8 315.39 977.36 335.2 942.66 335.2H928.26V373.17H898.64H898.63ZM941.51 308.03C953.95 308.03 960.17 303.77 960.17 293.46C960.17 283.15 954.12 279.22 940.37 279.22H928.26V308.03H941.52H941.51Z" fill="#1B1B63"/>
<path d="M1004.37 373.17V252.06H1071.64V279.23H1034V298.05H1070.5V325.22H1034V346.01H1071.64V373.18H1004.37V373.17Z" fill="#1B1B63"/>
<path d="M1150.37 373.17L1122.38 334.05H1122.05V373.17H1092.43V252.06H1132.04C1144.64 252.06 1154.3 253.7 1160.68 256.48C1173.77 262.37 1182.94 276.61 1182.94 293.8C1182.94 312.95 1171.48 328.66 1152.83 331.94L1185.73 373.18H1150.38L1150.37 373.17ZM1133.51 312.94C1145.78 312.94 1153.31 307.21 1153.31 295.59C1153.31 285.12 1145.45 279.22 1133.83 279.22H1122.05V312.94H1133.51Z" fill="#1B1B63"/>
<path d="M1248.41 287.41C1247.1 278.74 1243.5 275.63 1237.45 275.63C1231.72 275.63 1226.81 279.72 1226.81 285.12C1226.81 292.32 1233.36 295.59 1246.61 301.32C1273.29 312.78 1280 322.43 1280 338.31C1280 361.71 1263.96 375.46 1237.77 375.46C1211.58 375.46 1194.07 361.71 1194.07 335.69V333.07H1224.84C1225 343.05 1229.91 349.6 1237.61 349.6C1243.99 349.6 1249.23 344.53 1249.23 337.98C1249.23 328.32 1235.81 324.07 1224.84 319.65C1205.04 311.63 1196.03 301.16 1196.03 285.44C1196.03 264.82 1216 249.76 1238.26 249.76C1246.28 249.76 1253.32 251.56 1259.7 254.83C1272.63 261.54 1278.85 271.2 1279.01 287.4H1248.4L1248.41 287.41Z" fill="#1B1B63"/>
<defs>
<linearGradient id="paint0_linear_14_3" x1="13.09" y1="13.08" x2="444.04" y2="444.04" gradientUnits="userSpaceOnUse">
<stop stop-color="#F9CE00"/>
<stop offset="0.99" stop-color="#FB8915"/>
</linearGradient>
<linearGradient id="paint1_linear_14_3" x1="13.09" y1="13.09" x2="444.04" y2="444.05" gradientUnits="userSpaceOnUse">
<stop stop-color="#F9CE00"/>
<stop offset="0.99" stop-color="#FB8915"/>
</linearGradient>
<linearGradient id="paint2_linear_14_3" x1="0" y1="309.9" x2="457.12" y2="309.9" gradientUnits="userSpaceOnUse">
<stop stop-color="#F9CE00"/>
<stop offset="0.99" stop-color="#FB8915"/>
</linearGradient>
<linearGradient id="paint3_linear_14_3" x1="13.09" y1="13.1" x2="209.53" y2="209.54" gradientUnits="userSpaceOnUse">
<stop stop-color="#F9CE00"/>
<stop offset="0.99" stop-color="#FB8915"/>
</linearGradient>
<radialGradient id="paint4_radial_14_3" cx="0" cy="0" r="1" gradientUnits="userSpaceOnUse" gradientTransform="translate(228.56 228.57) scale(197.29 197.29)">
<stop stop-color="#F9CE00"/>
<stop offset="1" stop-color="#FB8915"/>
</radialGradient>
</defs>
</svg>
